<svg width="366" height="163" viewBox="0 0 366 163" fill="none" xmlns="http://www.w3.org/2000/svg">
<path d="M59.5 114.989C91.4821 114.989 83.5089 151.203 99.5 151.203C108.151 151.203 117 114.989 129 114.989C146 114.989 151.714 133.5 161.5 133.5C182.821 133.5 176 162 189.5 162C204.638 162 203.206 141.013 215.5 133.5C224.5 128 213.376 106.305 234 106.305C247.895 106.305 247.5 121 254 123.5C260.5 126 254 151.203 264 151.203C272 151.203 271.5 133.5 280 127C288 123.5 281.545 102.145 294 102.5C312.929 103.04 305.757 112 312 116.5C320.323 122.5 317 155.284 329.235 155.284C339 155.284 338.5 131.5 347 129C360.002 120.5 366.102 103.482 362.502 68.5C258.221 68.5 83.6975 77.8395 1.5 77C1.49999 91.9901 -1.06833 109.774 5 114.989C20.7184 128.5 12.5 145.5 21.5 145.5C30.5 145.5 27.5179 114.989 59.5 114.989Z" fill="#C31545" stroke="#C41545"/>
<path d="M332.45 2.5H36.6155C-3.36221 2.5 4.12568 23.7288 4.12568 49.9158C4.12568 76.1028 -6.02739 97.3316 36.6155 97.3316H332.45C363.586 97.3316 363.586 76.1028 363.586 49.9158C363.586 23.7288 375.093 2.5 332.45 2.5Z" fill="#FF2C55" stroke="#FF2C55"/>
<path d="M332.45 2.5H36.6155C-3.36219 2.5 4.12567 23.7288 4.12567 49.9158C4.12567 76.1028 -6.02737 97.3316 36.6155 97.3316H332.45C367.267 97.3316 359.906 76.1028 359.906 49.9158C359.906 23.7288 367.267 2.5 332.45 2.5Z" stroke="#C31545" stroke-width="5"/>
</svg>
