<svg width="451" height="110" viewBox="0 0 451 110" fill="none" xmlns="http://www.w3.org/2000/svg">
<path d="M402.647 91.5635C301.305 116.296 162.562 113.28 58.8067 91.5635V58.3859H11.1517L28.6453 31.8438L1.5 4.09533C1.5 4.09533 96.9587 0.218834 98.9586 2.88888C99.0008 2.94521 99.0014 3.00446 98.9586 3.06672V26.9277C182.835 36.4949 275.121 37.3951 361.717 27.278V2.14356C361.575 1.97395 361.579 1.82058 361.717 1.68242C365.11 -1.71521 449.699 4.09533 449.699 4.09533L429.792 31.8438L449.699 58.3859H402.647V91.5635Z" fill="#0E8DBC"/>
<path d="M58.8067 21.5889C58.8067 34.1983 58.8067 45.895 58.8067 58.3859M58.8067 21.5889C50.3615 17.3664 70.8713 8.92116 95.6036 4.09533C98.1694 3.5947 99.1901 3.19793 98.9586 2.88888M58.8067 21.5889C71.9284 23.5905 85.3325 25.3735 98.9586 26.9277M402.647 21.5889C410.489 12.5405 386.36 8.92116 367.056 4.09533C362.722 3.01183 361.172 2.22829 361.717 1.68242M402.647 21.5889C402.647 35.6946 402.647 46.9039 402.647 58.3859M402.647 21.5889C389.186 23.7717 375.524 25.6649 361.717 27.278M402.647 58.3859C402.647 68.5092 402.647 78.8444 402.647 91.5635C301.305 116.296 162.562 113.28 58.8067 91.5635C58.8067 79.3503 58.8067 68.6024 58.8067 58.3859M402.647 58.3859H449.699L429.792 31.8438L449.699 4.09533C449.699 4.09533 365.11 -1.71521 361.717 1.68242M58.8067 58.3859H11.1517L28.6453 31.8438L1.5 4.09533C1.5 4.09533 96.9587 0.218834 98.9586 2.88888M98.9586 2.88888V26.9277M98.9586 26.9277C182.835 36.4949 275.122 37.3951 361.717 27.278M361.717 1.68242V27.278" stroke="#0E8DBC"/>
<path d="M449.699 4.09533L429.792 31.8438L449.699 58.3859H402.647V21.5889C389.186 23.7717 375.524 25.6649 361.717 27.278C275.121 37.3951 182.835 36.4949 98.9586 26.9277C85.3325 25.3735 71.9284 23.5905 58.8067 21.5889V58.3859H11.1517L28.6453 31.8438L1.5 4.09533C1.5 4.09533 96.9587 0.218834 98.9586 2.88888C99.0008 2.94521 99.0014 3.00446 98.9586 3.06672V26.9277C182.835 36.4949 275.121 37.3951 361.717 27.278V2.14356C361.575 1.97395 361.579 1.82058 361.717 1.68242C365.11 -1.71521 449.699 4.09533 449.699 4.09533Z" fill="#197FA5"/>
<path d="M58.8067 21.5889C58.8067 34.1983 58.8067 45.895 58.8067 58.3859H11.1517L28.6453 31.8438L1.5 4.09533C1.5 4.09533 96.9587 0.218834 98.9586 2.88888M58.8067 21.5889C50.3615 17.3664 70.8713 8.92116 95.6036 4.09533C98.1694 3.5947 99.1901 3.19793 98.9586 2.88888M58.8067 21.5889C71.9284 23.5905 85.3325 25.3735 98.9586 26.9277M402.647 21.5889C410.489 12.5405 386.36 8.92116 367.056 4.09533C362.722 3.01183 361.172 2.22829 361.717 1.68242M402.647 21.5889C402.647 35.6946 402.647 46.9039 402.647 58.3859H449.699L429.792 31.8438L449.699 4.09533C449.699 4.09533 365.11 -1.71521 361.717 1.68242M402.647 21.5889C389.186 23.7717 375.524 25.6649 361.717 27.278M98.9586 2.88888V26.9277M98.9586 26.9277C182.835 36.4949 275.122 37.3951 361.717 27.278M361.717 1.68242V27.278" stroke="#0E8DBC"/>
<path d="M367.056 4.09533C386.36 8.92116 410.489 12.5405 402.647 21.5889C389.186 23.7717 375.524 25.6649 361.717 27.278C275.121 37.3951 182.835 36.4949 98.9586 26.9277C85.3325 25.3735 71.9284 23.5905 58.8067 21.5889C50.3615 17.3664 70.8713 8.92116 95.6036 4.09533C97.7017 3.68595 98.7666 3.34603 98.9586 3.06672V2.88888C99.0008 2.94521 99.0013 3.00446 98.9586 3.06672V26.9277C182.835 36.4949 275.121 37.3951 361.717 27.278V2.14356C361.575 1.97395 361.579 1.82058 361.717 1.68242V2.14356C362.135 2.64411 363.819 3.28605 367.056 4.09533Z" fill="#1D7191"/>
<path d="M98.9586 26.9277C85.3325 25.3735 71.9284 23.5905 58.8067 21.5889C50.3615 17.3664 70.8713 8.92116 95.6036 4.09533C98.1694 3.5947 99.19 3.19793 98.9586 2.88888V26.9277ZM98.9586 26.9277C182.835 36.4949 275.121 37.3951 361.717 27.278M361.717 27.278C375.524 25.6649 389.186 23.7717 402.647 21.5889C410.489 12.5405 386.36 8.92116 367.056 4.09533C362.722 3.01183 361.172 2.22829 361.717 1.68242V27.278Z" stroke="#0E8DBC"/>
</svg>
