<svg width="63" height="66" viewBox="0 0 63 66" fill="none" xmlns="http://www.w3.org/2000/svg">
<path d="M32 64.5L18.5 62.5L25 55H37.5L32 64.5Z" fill="#D9D9D9" stroke="#D9D9D9"/>
<path d="M45 42.5L37.5 47.5L47.5 51L58.5 46L45 42.5Z" fill="#B3B3B3" stroke="#B3B3B3"/>
<path d="M48 51.5L50 59L36.5 56.5L37 47.5L48 51.5Z" fill="#D9D9D9" stroke="#D9D9D9"/>
<path d="M48 20L44 30.5L56.5 32L61.5 23.5L48 20Z" fill="#C7C7C7" stroke="#C7C7C7"/>
<path d="M56.5 32.5L60 41.5L46.5 39L44.5 31L56.5 32.5Z" fill="#E0E0E0" stroke="#E0E0E0"/>
<path d="M59.5 45.5L45 42.5L46.5 39L60 42.5L59.5 45.5Z" fill="#D9D9D9" stroke="#D9D9D9"/>
<path d="M52 15L62 21L48 17.5L41.5 13.5L52 15Z" fill="#B1B1B1" stroke="#B1B1B1"/>
<path d="M47.5 17.5L48 20L62 23V21L47.5 17.5Z" fill="#BFBFBF" stroke="#BFBFBF" stroke-linejoin="bevel"/>
<path d="M53 8L53.5 15L41.5 13.5L39 4L53 8Z" fill="#D9D9D9" stroke="#D9D9D9"/>
<path d="M53.5 7.5L39 3.5L37 2.5L49.5 5.5L53.5 7.5Z" fill="#A4A4A4" stroke="#A4A4A4"/>
<path d="M39 6L24 1L34.5 8.5L39 6Z" fill="#D9D9D9" stroke="#D9D9D9"/>
<path d="M13.5 54.5L5 53L12.5 52L13.5 54.5Z" fill="#A5A5A5" stroke="#A5A5A5"/>
<path d="M48 61.5L33 58.5L36 57L50 60L48 61.5Z" fill="#B5B5B5" stroke="#B5B5B5"/>
<path d="M18.5 62.5L15.5 61.5L12.5 52L5 53L3.5 50L5.5 40L1 34.5V30.5L7.5 24V13.5L9 11.5L17 10.5L21.5 2L24 1L30 6.5L37 2.5L39 4L41.5 13.5L47.5 17.5L48 20L44 30.5L46.5 39L45 42.5L37 47.5L36 57L32.5 58.5L25 55L18.5 62.5Z" fill="#FAFAFA" stroke="#FAFAFA"/>
<path d="M26.9828 31.5663L27 31.5C28.3212 26.4148 32 20 35.5 21.5C38 26 36.7693 27.6713 36 31.5C34.9161 36.8943 31.5 45 29 43.5C24.2405 42.1204 25.7343 36.3713 26.9828 31.5663Z" fill="#FF2C55" stroke="#FF2C55"/>
<path d="M13.5 25.5C11.5 31.5 10.5 38.5 16 44C19.757 47.468 25.073 47.26 29 44.5C29 44.5 24.5 42.5 27 30C29.5 21 35 21 35 21C33.8881 18.4172 31.9737 15.967 29 15.5C22.5 14 15.3333 20 13.5 25.5Z" fill="#B1B1B1" stroke="#B1B1B1"/>
<path d="M20 47.5C20 47.5 31 49 36 35C41 18.5 29.5 14.5 29.5 14.5" stroke="#FAFAFA"/>
</svg>
