<svg width="35" height="65" viewBox="0 0 35 65" fill="none" xmlns="http://www.w3.org/2000/svg">
<path d="M1 32.9904C1 19.7953 4.76114 1.38048 13.2237 1.49081H24.9773C24.9773 1.49081 35.3204 9.48324 33.91 32.9904C33.91 57.4378 24.9773 64.4899 24.9773 64.4899H13.2237C5.70143 64.588 1 46.1855 1 32.9904Z" fill="#D9D9D9"/>
<path d="M13.2237 1.49081C4.76114 1.38048 1 19.7953 1 32.9904C1 46.1855 5.70143 64.588 13.2237 64.4899M13.2237 1.49081C21.6863 1.60114 24.9773 19.8606 24.9773 32.9904C24.9773 46.1202 22.1564 64.4899 13.2237 64.4899M13.2237 1.49081H24.9773C24.9773 1.49081 35.3204 9.48324 33.91 32.9904C33.91 57.4378 24.9773 64.4899 24.9773 64.4899H13.2237" stroke="#D9D9D9"/>
<path d="M2.88058 32.9899C2.88058 20.5828 6.42048 3.26761 14.3852 3.37135C22.35 3.47509 25.4474 20.6442 25.4474 32.9899C25.4474 45.3357 22.7925 62.6085 14.3852 62.6085C7.30545 62.7007 2.88058 45.3971 2.88058 32.9899Z" stroke="#BEBEBE" stroke-width="2"/>
<path d="M24.9773 32.9904C24.9773 46.1202 22.1564 64.4899 13.2237 64.4899H24.9773C24.9773 64.4899 33.91 57.4378 33.91 32.9904C35.3204 9.48324 24.9773 1.49081 24.9773 1.49081H13.2237C21.6863 1.60114 24.9773 19.8606 24.9773 32.9904Z" fill="#C9C9C9" stroke="#C9C9C9"/>
<path d="M16.0446 9.0126V48.5046L18.3953 50.8553" stroke="#C2C2C2" stroke-width="3"/>
<path d="M8.99242 17.9453L13.2237 14.6543" stroke="#C2C2C2" stroke-width="3"/>
<path d="M13.2237 49.915V11.8335L7.582 16.5349M13.2237 49.915L16.9849 52.7359M13.2237 49.915L7.582 45.2136" stroke="#F0F0F0" stroke-width="3"/>
</svg>
