<svg width="57" height="65" viewBox="0 0 57 65" fill="none" xmlns="http://www.w3.org/2000/svg">
<path d="M55.196 64H1.00246C1.00246 64 0.202704 36.2258 27.4218 36.2258C55.196 36.2258 55.196 64 55.196 64Z" fill="#FAFAFA" stroke="#FAFAFA"/>
<path d="M43.0025 15.9032C43.0025 24.1341 36.3301 30.8065 28.0992 30.8065C19.8684 30.8065 13.196 24.1341 13.196 15.9032C13.196 7.67241 19.8684 1 28.0992 1C36.3301 1 43.0025 7.67241 43.0025 15.9032Z" fill="#FAFAFA" stroke="#FAFAFA"/>
<path d="M44.5 64.5C44.5 64.5 43.5 40.697 26.5 36C54.5 35 56 64.5 56 64.5H44.5Z" fill="#BFBFBF" stroke="#BFBFBF"/>
<path d="M28.5 1C39.5 11 39 20 29 30.5C37.5 30.5 43.3619 24.4223 43.5 16C43.6403 7.44074 35 1 28.5 1Z" fill="#BFBFBF" stroke="#BFBFBF"/>
</svg>
